<svg width="514" height="454" xmlns="http://www.w3.org/2000/svg">

 <g>
  <title>Layer 1</title>
  <path id="svg_1" fill="#ff99cc" d="m189,44l1,1l-1,-1z"/>
  <path id="svg_2" fill="#d9ebff" d="m74,179c-15.185,4.467 -29.4519,17.852 -38.9853,30c-34.44872,43.896 -30.70878,106.711 8.9853,145.996c8.9705,8.878 20.0514,17.488 32,21.918c30.497,11.305 63.004,8.086 95,8.086l154,0l45,0c18.846,0 36.534,-0.167 54,-8.323c45.682,-21.334 66.584,-81.849 42.677,-126.677c-13.564,-25.433 -35.003,-39.471 -61.677,-48c14.56879,-23.30532 12.854,-53.784 -6.174,-74.999c-5.345,-5.96 -11.851,-10.683 -18.826,-14.562c-6.981,-3.883 -15.053,-5.802 -23,-6.349c-10.224,-0.705 -21.83,1.019 -31,5.731c-4.962,2.549 -9.263,6.255 -14,9.179c-4.918,-17.072 -18.762,-33.9233 -32,-45.2708c-13.311,-11.4097 -29.064,-21.4604 -46,-26.5209c-62.777,-18.758 -131.114,15.014 -153.6806,76.7917c-5.6615,15.499 -10.2145,36.64 -6.3194,53z"/>
  <path id="svg_3" fill="#ff0000" d="m204,44l1,1l-1,-1z"/>
  <path id="svg_4" fill="#84bdf6" d="m226,47l1,1l-1,-1z"/>
  <path id="svg_5" fill="#003ae8" d="m240,51l1,1l-1,-1z"/>
  <path id="svg_6" fill="#3496ec" d="m243,52l1,1l-1,-1z"/>
  <path id="svg_8" fill="#79b5f3" d="m249,55l1,1l-1,-1z"/>
  <path id="svg_9" fill="#0990ec" d="m250,55l1,1l-1,-1z"/>
  <path id="svg_10" fill="#73b2f3" d="m251,56l1,1l-1,-1z"/>
  <path id="svg_11" fill="#0024e1" d="m252,56l1,1l-1,-1z"/>
  <path id="svg_12" fill="#6daef2" d="m253,57l1,1l-1,-1z"/>
  <path id="svg_13" fill="#178bea" d="m254,57l1,1l-1,-1z"/>
  <path id="svg_14" fill="#4599ed" d="m250.55869,55.81924c9.59663,4.56433 21.61431,13.68715 29.44131,20.49675c13.795,12.0025 24.979,27.8476 32,44.7106c4.366,-3.026 7.4515,-4.9735 11,-7.5c-2.186,-6.859 -7.192,-12.047 -11.754,-17.5c-9.872,-11.7999 -22,-21.255 -35.246,-28.9884c-6.465,-3.7745 -18.00631,-9.93875 -25.44131,-11.21895z"/>
  <path id="svg_15" fill="#95c6fb" d="m258,60l1,1l-1,-1z"/>
  <path id="svg_16" fill="#8cbef5" d="m266,65l1,1l-1,-1m13,10l1,1l-1,-1z"/>
  <path id="svg_17" fill="#97c5f7" d="m280,76l1,1l-1,-1z"/>
  <path id="svg_18" fill="#90c1f6" d="m290,86l1,1l-1,-1z"/>
  <path id="svg_19" fill="#94c3f6" d="m295,92l1,1l-1,-1z"/>
  <path id="svg_20" fill="#93c2f6" d="m298,96l1,1l-1,-1z"/>
  <path id="svg_21" fill="#91c1f6" d="m302,102l1,1l-1,-1z"/>
  <path id="svg_22" fill="#8cc6f7" d="m366,107l1,1l-1,-1z"/>
  <path id="svg_23" fill="#008aeb" d="m376,110l1,1l-1,-1z"/>
  <path id="svg_24" fill="#4aa2ed" d="m378,111l1,1l-1,-1z"/>
  <path id="svg_25" fill="#449cef" d="m380,112l1,1l-1,-1z"/>
  <path id="svg_27" fill="#007fec" d="m383,113l1,1l-1,-1z"/>
  <path id="svg_28" fill="#4599ed" d="m376.72919,110.79168c9.67273,4.44851 19.37281,13.49507 24.80281,20.17707c12.116,14.909 16.035,34.571 11.048,53c-1.715,6.34 -5.1375,12.0455 -7.6425,18.0625c7.22116,2.377 13.63787,5.11774 19.87476,8.00103c2.856,-7.982 7.09174,-16.45653 8.01374,-25.06353c3.387,-31.614 -23.05781,-68.48807 -56.09681,-74.17707z"/>
  <path id="svg_29" fill="#8fc0f5" d="m320,115l1,1l-1,-1z"/>
  <path id="svg_30" fill="#90c2f9" d="m386,116l1,1l-1,-1z"/>
  <path id="svg_31" fill="#8dbff5" d="m317,117l1,1l-1,-1z"/>
  <path id="svg_32" fill="#91c2f6" d="m390,119l1,1l-1,-1z"/>
  <path id="svg_33" fill="#96c4f6" d="m401,130l1,1l-1,-1z"/>
  <path id="svg_34" fill="#90c0f5" d="m404,134l1,1l-1,-1z"/>
  <path id="svg_35" fill="#89bdf4" d="m408,141l1,1l-1,-1z"/>
  <path id="svg_41" fill="#9ac6f7" d="m410,190l1,1l-1,-1z"/>
  <path id="svg_42" fill="#97c5f7" d="m405,200l1,1l-1,-1z"/>
  <path id="svg_45" fill="#91c2f6" d="m423,208l1,1l-1,-1z"/>
  <path id="svg_47" fill="#0068e1" d="m427,209l1,1l-1,-1z"/>
  <path id="svg_48" fill="#98c5f6" d="m427,210l1,1l-1,-1z"/>
  <path id="svg_50" fill="#7db9f9" d="m429,211l1,1l-1,-1z"/>
  <path id="svg_51" fill="#4599ed" d="m427.49637,211.375c6.07321,3.46342 12.72763,7.495 17.50363,11.796c9.406,8.468 17.887,19.259 23.136,30.829c6.376,14.056 9.109,29.403 8.024,44.875c-2.74,39.102 -31.866,73.10867 -69.16,83.50667c-16.21033,3.13499 -30.56065,2.57666 -47.66665,2.57666c-59.33333,0 -121.14585,0.08333 -180.47918,0.08334c-25.8187,0.16666 -36.75699,0.35465 -57.45833,0.08199c-9.723,-0.542 -24.40305,-2.07782 -33.81251,-4.68617c10.1132,8.17 32.78835,10.0475 45.00001,10.93684c25.28901,0.66668 33.11566,0.62567 44.41666,0.62567c221.36099,2.02301 224.56966,2.107 227.70566,2.106c16.756,-0.003 35.65334,-6.524 49.29434,-15.991c12.76,-8.856 23.59,-20.339 30.88,-34.115c20.816,-39.334 9.628,-89.543 -24.88,-117.192c-8.634,-6.918 -21.65463,-12.856 -32.50363,-15.433z"/>
  <path id="svg_52" fill="#99c6f6" d="m438,217l1,1l-1,-1z"/>
  <path id="svg_53" fill="#97c5f7" d="m443,221l1,1l-1,-1z"/>
  <path id="svg_54" fill="#9cc7f7" d="m460,240l1,1l-1,-1z"/>
  <path id="svg_55" fill="#99c6f7" d="m462,243l1,1l-1,-1z"/>
  <path id="svg_64" fill="#8fc0f5" d="m472,320l1,1l-1,-1z"/>
  <path id="svg_66" fill="#97c4f6" d="m464,338l1,1l-1,-1z"/>
  <path id="svg_67" fill="#90c1f6" d="m461,343l1,1l-1,-1z"/>
  <path id="svg_68" fill="#95c3f6" d="m458,347l1,1l-1,-1z"/>
  <path id="svg_69" fill="#8fc0f5" d="m455,351l1,1l-1,-1z"/>
  <path id="svg_70" fill="#97c4f6" d="m454,352l1,1l-1,-1z"/>
  <path id="svg_71" fill="#7fb6ed" d="m51,361l1,1l-1,-1z"/>
  <path id="svg_72" fill="#97c4f6" d="m443,363l1,1l-1,-1z"/>
  <path id="svg_73" fill="#92c2f6" d="m442,364l1,1l-1,-1z"/>
  <path id="svg_74" fill="#73b3ff" d="m59,367l1,1l-1,-1z"/>
  <path id="svg_75" fill="#90c0f5" d="m434,370l1,1l-1,-1z"/>
  <path id="svg_76" fill="#98c5f6" d="m429,373l1,1l-1,-1z"/>
  <path id="svg_77" fill="#007ff0" d="m77,377l1,1l-1,-1z"/>
  <path id="svg_79" fill="#54a4f0" d="m82,379l1,1l-1,-1z"/>
 </g>
</svg>